<svg width="338" height="151" viewBox="0 0 338 151" fill="none" xmlns="http://www.w3.org/2000/svg">
<path d="M0 145.247V12.7524H81.9536C105.091 12.7524 124.52 22.9987 124.52 46.4944C124.52 62.2171 116.042 71.9334 103.502 76.5265C118.515 80.413 128.582 90.1293 128.582 108.679C128.582 132.881 110.214 145.247 86.016 145.247H0ZM32.4989 41.018V66.4569H79.4809C86.7225 66.4569 92.0212 61.1572 92.0212 53.2075C92.0212 45.2578 86.7225 41.018 79.4809 41.018H32.4989ZM32.4989 90.306V116.982H81.6004C89.9017 116.982 95.5537 113.095 95.5537 103.732C95.5537 94.3691 89.9017 90.306 81.6004 90.306H32.4989Z" fill="#0A1026"/>
<path d="M209.418 145.247V12.7524H291.372C314.509 12.7524 333.938 22.9987 333.938 46.4944C333.938 62.2171 325.46 71.9334 312.92 76.5265C327.933 80.413 338 90.1293 338 108.679C338 132.881 319.631 145.247 295.434 145.247H209.418ZM241.917 41.018V66.4569H288.899C296.14 66.4569 301.439 61.1572 301.439 53.2075C301.439 45.2578 296.14 41.018 288.899 41.018H241.917ZM241.917 90.306V116.982H291.018C299.32 116.982 304.972 113.095 304.972 103.732C304.972 94.3691 299.32 90.306 291.018 90.306H241.917Z" fill="#0A1026"/>
<path d="M229.965 96.6363L236.765 122.605L129.112 150.753L123.843 130.584C113.746 91.9549 191.078 68.6358 182.953 37.5437C180.804 29.3291 169.442 27.0325 158.491 29.8885C146.686 32.98 135.412 42.1369 136.972 56.5052L105.68 61.7755C101.736 34.1283 118.132 12.3109 153.163 3.15402C183.572 -4.79566 207.327 3.59567 213.657 27.8863C226.197 75.9083 158.255 100.258 158.226 115.421L229.994 96.6658L229.965 96.6363Z" fill="white"/>
</svg>
