<svg width="152" height="82" viewBox="0 0 152 82" fill="none" xmlns="http://www.w3.org/2000/svg">
<path d="M13 67.0249V16.7456H44.1387C52.93 16.7456 60.312 20.6339 60.312 29.5501C60.312 35.5166 57.0908 39.2037 52.326 40.9467C58.0303 42.4216 61.8555 46.1087 61.8555 53.1478C61.8555 62.3322 54.8762 67.0249 45.6822 67.0249H13ZM25.3481 27.4719V37.1255H43.1992C45.9506 37.1255 47.9639 35.1143 47.9639 32.0976C47.9639 29.0808 45.9506 27.4719 43.1992 27.4719H25.3481ZM25.3481 46.1758V56.2987H44.0045C47.1586 56.2987 49.3061 54.8238 49.3061 51.2707C49.3061 47.7177 47.1586 46.1758 44.0045 46.1758H25.3481Z" fill="#0A1026"/>
<path d="M92.5693 67.0249V16.7456H123.708C132.499 16.7456 139.881 20.6339 139.881 29.5501C139.881 35.5166 136.66 39.2037 131.895 40.9467C137.6 42.4216 141.425 46.1087 141.425 53.1478C141.425 62.3322 134.445 67.0249 125.252 67.0249H92.5693ZM104.917 27.4719V37.1255H122.768C125.52 37.1255 127.533 35.1143 127.533 32.0976C127.533 29.0808 125.52 27.4719 122.768 27.4719H104.917ZM104.917 46.1758V56.2987H123.574C126.728 56.2987 128.875 54.8238 128.875 51.2707C128.875 47.7177 126.728 46.1758 123.574 46.1758H104.917Z" fill="#0A1026"/>
<path d="M100.376 48.578L102.96 58.4327L62.0568 69.1143L60.0547 61.4607C56.2183 46.8015 85.6009 37.9523 82.5139 26.1534C81.6974 23.0361 77.3801 22.1646 73.2193 23.2484C68.7342 24.4216 64.4504 27.8964 65.0432 33.3489L53.1536 35.3489C51.6549 24.8573 57.8848 16.578 71.1948 13.1031C82.7488 10.0864 91.775 13.2707 94.1797 22.4886C98.9445 40.7121 73.1298 49.9523 73.1186 55.7065L100.387 48.5892L100.376 48.578Z" fill="#55D6C9"/>
</svg>
